<svg xmlns="http://www.w3.org/2000/svg" viewBox="0 0 637.47 476.03"><defs><style>.cls-1{fill:#29dce5;}</style></defs><title>pattern</title><g id="Layer_2" data-name="Layer 2"><g id="Layer_1-2" data-name="Layer 1"><polygon class="cls-1" points="591.66 185.15 591.66 185.15 591.66 185.16 591.66 185.15"/><polygon class="cls-1" points="583.96 171.81 584.17 171.93 583.96 172.05 583.96 171.81"/><polygon class="cls-1" points="591.46 158.71 591.77 158.53 591.77 158.89 591.46 158.71"/><polygon class="cls-1" points="583.86 145.19 584.38 145.49 583.86 145.79 583.86 145.19"/><polygon class="cls-1" points="606.9 158.65 607 158.71 606.9 158.77 606.9 158.65"/><polygon class="cls-1" points="591.32 132.27 591.84 131.96 591.84 132.57 591.32 132.27"/><polygon class="cls-1" points="583.78 118.61 584.53 119.05 583.78 119.48 583.78 118.61"/><polygon class="cls-1" points="614.46 145.49 614.62 145.4 614.62 145.58 614.46 145.49"/><polygon class="cls-1" points="606.83 132.09 607.14 132.27 606.83 132.44 606.83 132.09"/><polygon class="cls-1" points="591.24 105.82 591.87 105.46 591.87 106.19 591.24 105.82"/><polygon class="cls-1" points="583.76 92.13 584.58 92.6 583.76 93.08 583.76 92.13"/><polygon class="cls-1" points="629.83 145.49 629.83 145.49 629.83 145.49 629.83 145.49"/><polygon class="cls-1" points="614.43 119.05 614.63 118.93 614.63 119.16 614.43 119.05"/><polygon class="cls-1" points="606.83 105.65 607.14 105.82 606.83 106 606.83 105.65"/><polygon class="cls-1" points="591.24 79.38 591.87 79.01 591.87 79.75 591.24 79.38"/><polygon class="cls-1" points="583.78 65.73 584.53 66.16 583.78 66.59 583.78 65.73"/><polygon class="cls-1" points="637.46 132.27 637.47 132.26 637.47 132.27 637.46 132.27"/><polygon class="cls-1" points="629.83 119.04 629.83 119.05 629.83 119.05 629.83 119.04"/><polygon class="cls-1" points="614.5 92.6 614.6 92.55 614.6 92.66 614.5 92.6"/><polygon class="cls-1" points="606.86 79.26 607.07 79.38 606.86 79.5 606.86 79.26"/><polygon class="cls-1" points="591.39 52.94 591.8 52.7 591.8 53.18 591.39 52.94"/><polygon class="cls-1" points="583.89 39.48 584.31 39.72 583.89 39.95 583.89 39.48"/><polygon class="cls-1" points="606.91 52.9 606.98 52.94 606.91 52.98 606.91 52.9"/><polygon class="cls-1" points="591.66 26.5 591.66 26.49 591.66 26.5 591.66 26.5"/><polygon class="cls-1" points="417.44 304.11 417.5 304.15 417.44 304.19 417.44 304.11"/><polygon class="cls-1" points="401.96 304.15 402.31 303.95 402.31 304.35 401.96 304.15"/><polygon class="cls-1" points="424.72 290.93 425.27 290.61 425.27 291.24 424.72 290.93"/><polygon class="cls-1" points="394.11 290.16 395.44 290.93 394.11 291.69 394.11 290.16"/><polygon class="cls-1" points="379.19 317.37 379.34 317.28 379.34 317.45 379.19 317.37"/><polygon class="cls-1" points="416.93 276.79 418.51 277.7 416.93 278.62 416.93 276.79"/><polygon class="cls-1" points="400.81 277.7 402.88 276.51 402.88 278.9 400.81 277.7"/><polygon class="cls-1" points="378.12 290.93 379.88 289.91 379.88 291.94 378.12 290.93"/><polygon class="cls-1" points="371.27 303.48 372.42 304.15 371.27 304.81 371.27 303.48"/><polygon class="cls-1" points="440.3 290.83 440.47 290.93 440.3 291.02 440.3 290.83"/><polygon class="cls-1" points="439.82 263.55 441.44 264.48 439.82 265.42 439.82 263.55"/><polygon class="cls-1" points="423.53 264.48 425.87 263.13 425.87 265.84 423.53 264.48"/><polygon class="cls-1" points="393.36 262.4 396.95 264.48 393.36 266.56 393.36 262.4"/><polygon class="cls-1" points="376.47 264.48 380.7 262.04 380.7 266.93 376.47 264.48"/><polygon class="cls-1" points="370.58 275.85 373.8 277.7 370.58 279.56 370.58 275.85"/><polygon class="cls-1" points="355.11 304.15 357.03 303.04 357.03 305.26 355.11 304.15"/><polygon class="cls-1" points="348.28 316.55 349.71 317.37 348.28 318.19 348.28 316.55"/><polygon class="cls-1" points="356.24 330.59 356.46 330.46 356.46 330.72 356.24 330.59"/><polygon class="cls-1" points="447.67 277.7 448.15 277.43 448.15 277.98 447.67 277.7"/><polygon class="cls-1" points="446.61 251.26 448.68 250.06 448.68 252.46 446.61 251.26"/><polygon class="cls-1" points="416.16 249 420.06 251.26 416.16 253.52 416.16 249"/><polygon class="cls-1" points="399.04 251.26 403.76 248.53 403.76 253.99 399.04 251.26"/><polygon class="cls-1" points="369.62 247.73 375.73 251.26 369.62 254.79 369.62 247.73"/><polygon class="cls-1" points="353.77 277.7 357.7 275.43 357.7 279.98 353.77 277.7"/><polygon class="cls-1" points="347.68 289.06 350.91 290.93 347.68 292.79 347.68 289.06"/><polygon class="cls-1" points="331.89 317.37 334.29 315.98 334.29 318.76 331.89 317.37"/><polygon class="cls-1" points="463.25 277.7 463.26 277.7 463.25 277.71 463.25 277.7"/><polygon class="cls-1" points="439.21 236.05 442.65 238.04 439.21 240.03 439.21 236.05"/><polygon class="cls-1" points="422.05 238.04 426.61 235.4 426.61 240.68 422.05 238.04"/><polygon class="cls-1" points="392.44 234.37 398.8 238.04 392.44 241.71 392.44 234.37"/><polygon class="cls-1" points="374.61 238.04 381.63 233.98 381.63 242.1 374.61 238.04"/><polygon class="cls-1" points="351.8 251.26 358.68 247.29 358.68 255.24 351.8 251.26"/><polygon class="cls-1" points="346.82 261.13 352.63 264.48 346.82 267.83 346.82 261.13"/><polygon class="cls-1" points="330.62 290.93 334.93 288.44 334.93 293.42 330.62 290.93"/><polygon class="cls-1" points="324.51 301.81 328.56 304.15 324.51 306.49 324.51 301.81"/><polygon class="cls-1" points="325.14 329.36 327.28 330.59 325.14 331.82 325.14 329.36"/><polygon class="cls-1" points="333.02 343.81 333.72 343.41 333.72 344.21 333.02 343.81"/><polygon class="cls-1" points="470.68 264.48 471 264.3 471 264.67 470.68 264.48"/><polygon class="cls-1" points="462.84 250.54 464.1 251.26 462.84 251.98 462.84 250.54"/><polygon class="cls-1" points="462.35 223.25 465.07 224.82 462.35 226.39 462.35 223.25"/><polygon class="cls-1" points="445.54 224.82 449.22 222.69 449.22 226.94 445.54 224.82"/><polygon class="cls-1" points="415.44 221.33 421.49 224.82 415.44 228.31 415.44 221.33"/><polygon class="cls-1" points="397.51 224.82 404.53 220.77 404.53 228.87 397.51 224.82"/><polygon class="cls-1" points="368.84 219.94 377.29 224.82 368.84 229.69 368.84 219.94"/><polygon class="cls-1" points="350.37 224.82 359.4 219.6 359.4 230.03 350.37 224.82"/><polygon class="cls-1" points="345.96 233.2 354.35 238.04 345.96 242.88 345.96 233.2"/><polygon class="cls-1" points="328.96 264.48 335.76 260.55 335.76 268.41 328.96 264.48"/><polygon class="cls-1" points="323.81 274.17 329.94 277.7 323.81 281.25 323.81 274.17"/><polygon class="cls-1" points="306.82 304.15 312.48 300.88 312.48 307.41 306.82 304.15"/><polygon class="cls-1" points="301.11 314.17 306.65 317.37 301.11 320.57 301.11 314.17"/><polygon class="cls-1" points="308.14 330.59 311.81 328.47 311.81 332.71 308.14 330.59"/><polygon class="cls-1" points="325.68 356.73 326.2 357.03 325.68 357.34 325.68 356.73"/><polygon class="cls-1" points="469.83 238.04 471.42 237.12 471.42 238.96 469.83 238.04"/><polygon class="cls-1" points="468.97 211.6 471.85 209.93 471.85 213.26 468.97 211.6"/><polygon class="cls-1" points="438.64 208.62 443.79 211.6 438.64 214.57 438.64 208.62"/><polygon class="cls-1" points="420.86 211.6 427.21 207.93 427.21 215.26 420.86 211.6"/><polygon class="cls-1" points="391.8 206.82 400.07 211.6 391.8 216.37 391.8 206.82"/><polygon class="cls-1" points="373.31 211.6 382.28 206.42 382.28 216.78 373.31 211.6"/><polygon class="cls-1" points="345.47 205.9 355.34 211.6 345.47 217.29 345.47 205.9"/><polygon class="cls-1" points="327.41 238.04 336.53 232.78 336.53 243.3 327.41 238.04"/><polygon class="cls-1" points="322.98 246.28 331.61 251.26 322.98 256.24 322.98 246.28"/><polygon class="cls-1" points="305.49 277.7 313.14 273.29 313.14 282.12 305.49 277.7"/><polygon class="cls-1" points="300.48 286.64 307.9 290.93 300.48 295.21 300.48 286.64"/><polygon class="cls-1" points="282.65 317.37 290.21 313.01 290.21 321.73 282.65 317.37"/><polygon class="cls-1" points="301.8 341.81 305.27 343.81 301.8 345.81 301.8 341.81"/><polygon class="cls-1" points="309.42 357.03 311.17 356.02 311.17 358.04 309.42 357.03"/><polygon class="cls-1" points="485.9 237.59 486.68 238.04 485.9 238.49 485.9 237.59"/><polygon class="cls-1" points="461.92 196.06 465.93 198.38 461.92 200.69 461.92 196.06"/><polygon class="cls-1" points="444.58 198.38 449.7 195.42 449.7 201.33 444.58 198.38"/><polygon class="cls-1" points="414.95 194.04 422.46 198.38 414.95 202.71 414.95 194.04"/><polygon class="cls-1" points="396.54 198.38 405.01 193.48 405.01 203.27 396.54 198.38"/><polygon class="cls-1" points="368.42 192.76 378.13 198.38 368.42 203.99 368.42 192.76"/><polygon class="cls-1" points="349.69 198.38 359.74 192.57 359.74 204.18 349.69 198.38"/><polygon class="cls-1" points="326.57 211.6 336.95 205.61 336.95 217.59 326.57 211.6"/><polygon class="cls-1" points="322.46 218.94 332.65 224.82 322.46 230.7 322.46 218.94"/><polygon class="cls-1" points="304.1 251.26 313.83 245.64 313.83 256.88 304.1 251.26"/><polygon class="cls-1" points="299.79 259 309.29 264.48 299.79 269.97 299.79 259"/><polygon class="cls-1" points="281.45 290.93 290.81 285.53 290.81 296.33 281.45 290.93"/><polygon class="cls-1" points="276.86 298.6 286.46 304.15 276.86 309.69 276.86 298.6"/><polygon class="cls-1" points="277.51 326.19 285.14 330.59 277.51 335 277.51 326.19"/><polygon class="cls-1" points="284.15 343.81 289.46 340.75 289.46 346.88 284.15 343.81"/><polygon class="cls-1" points="302.44 369.37 303.98 370.26 302.44 371.14 302.44 369.37"/><polygon class="cls-1" points="310.38 383.48 310.69 383.3 310.69 383.65 310.38 383.48"/><polygon class="cls-1" points="493.14 224.82 494.12 224.26 494.12 225.38 493.14 224.82"/><polygon class="cls-1" points="485.5 210.45 487.49 211.6 485.5 212.75 485.5 210.45"/><polygon class="cls-1" points="485.14 183.39 488.19 185.15 485.14 186.91 485.14 183.39"/><polygon class="cls-1" points="468.18 185.15 472.25 182.8 472.25 187.5 468.18 185.15"/><polygon class="cls-1" points="438.26 181.53 444.55 185.15 438.26 188.78 438.26 181.53"/><polygon class="cls-1" points="420.11 185.15 427.58 180.84 427.58 189.47 420.11 185.15"/><polygon class="cls-1" points="391.51 179.88 400.65 185.15 391.51 190.43 391.51 179.88"/><polygon class="cls-1" points="372.8 185.15 382.54 179.53 382.54 190.78 372.8 185.15"/><polygon class="cls-1" points="345.31 179.18 355.65 185.15 345.31 191.13 345.31 179.18"/><polygon class="cls-1" points="326.47 185.15 337 179.08 337 191.23 326.47 185.15"/><polygon class="cls-1" points="322.29 192.19 333 198.38 322.29 204.56 322.29 192.19"/><polygon class="cls-1" points="303.39 224.82 314.19 218.59 314.19 231.05 303.39 224.82"/><polygon class="cls-1" points="299.35 231.79 310.17 238.04 299.35 244.29 299.35 231.79"/><polygon class="cls-1" points="280.27 264.48 291.4 258.06 291.4 270.91 280.27 264.48"/><polygon class="cls-1" points="276.29 271.17 287.6 277.7 276.29 284.24 276.29 271.17"/><polygon class="cls-1" points="257.07 304.15 268.65 297.46 268.65 310.83 257.07 304.15"/><polygon class="cls-1" points="253.24 310.59 264.99 317.37 253.24 324.15 253.24 310.59"/><polygon class="cls-1" points="258.34 330.59 268.01 325.01 268.01 336.17 258.34 330.59"/><polygon class="cls-1" points="278.36 354.1 283.44 357.03 278.36 359.97 278.36 354.1"/><polygon class="cls-1" points="285.66 370.26 288.7 368.5 288.7 372.01 285.66 370.26"/><polygon class="cls-1" points="302.89 396.58 303.09 396.7 302.89 396.81 302.89 396.58"/><polygon class="cls-1" points="508.93 224.6 509.31 224.82 508.93 225.03 508.93 224.6"/><polygon class="cls-1" points="492.43 198.38 494.48 197.19 494.48 199.56 492.43 198.38"/><polygon class="cls-1" points="491.73 171.93 494.82 170.14 494.82 173.72 491.73 171.93"/><polygon class="cls-1" points="461.55 168.97 466.68 171.93 461.55 174.89 461.55 168.97"/><polygon class="cls-1" points="443.9 171.93 450.04 168.38 450.04 175.48 443.9 171.93"/><polygon class="cls-1" points="414.71 167.17 422.96 171.93 414.71 176.7 414.71 167.17"/><polygon class="cls-1" points="396.13 171.93 405.22 166.68 405.22 177.18 396.13 171.93"/><polygon class="cls-1" points="368.31 166.14 378.35 171.93 368.31 177.72 368.31 166.14"/><polygon class="cls-1" points="349.58 171.93 359.79 166.04 359.79 177.82 349.58 171.93"/><polygon class="cls-1" points="322.39 165.93 332.79 171.93 322.39 177.93 322.39 165.93"/><polygon class="cls-1" points="303.29 198.38 314.24 192.06 314.24 204.69 303.29 198.38"/><polygon class="cls-1" points="299.22 205.13 310.43 211.6 299.22 218.07 299.22 205.13"/><polygon class="cls-1" points="279.8 238.04 291.63 231.21 291.63 244.87 279.8 238.04"/><polygon class="cls-1" points="275.95 244.16 288.26 251.26 275.95 258.37 275.95 244.16"/><polygon class="cls-1" points="256.13 277.7 269.12 270.2 269.12 285.21 256.13 277.7"/><polygon class="cls-1" points="252.75 283.3 265.96 290.93 252.75 298.55 252.75 283.3"/><polygon class="cls-1" points="232.8 317.37 246.43 309.5 246.43 325.24 232.8 317.37"/><polygon class="cls-1" points="254.04 338.42 263.38 343.81 254.04 349.2 254.04 338.42"/><polygon class="cls-1" points="260.15 357.03 267.11 353.02 267.11 361.05 260.15 357.03"/><polygon class="cls-1" points="279.16 381.92 281.85 383.48 279.16 385.04 279.16 381.92"/><polygon class="cls-1" points="286.89 396.7 288.09 396.01 288.09 397.38 286.89 396.7"/><polygon class="cls-1" points="516.28 211.6 516.9 211.24 516.9 211.95 516.28 211.6"/><polygon class="cls-1" points="508.61 197.59 509.96 198.38 508.61 199.16 508.61 197.59"/><polygon class="cls-1" points="484.79 156.33 488.91 158.71 484.79 161.09 484.79 156.33"/><polygon class="cls-1" points="467.46 158.71 472.61 155.74 472.61 161.68 467.46 158.71"/><polygon class="cls-1" points="437.99 154.61 445.09 158.71 437.99 162.81 437.99 154.61"/><polygon class="cls-1" points="419.69 158.71 427.79 154.04 427.79 163.38 419.69 158.71"/><polygon class="cls-1" points="391.47 153.36 400.74 158.71 391.47 164.06 391.47 153.36"/><polygon class="cls-1" points="372.84 158.71 382.51 153.13 382.51 164.29 372.84 158.71"/><polygon class="cls-1" points="345.51 153.1 355.24 158.71 345.51 164.32 345.51 153.1"/><polygon class="cls-1" points="327.06 158.71 336.7 153.14 336.7 164.28 327.06 158.71"/><polygon class="cls-1" points="303.75 171.93 314.01 166 314.01 177.86 303.75 171.93"/><polygon class="cls-1" points="299.37 178.95 310.12 185.15 299.37 191.36 299.37 178.95"/><polygon class="cls-1" points="279.92 211.6 291.57 204.87 291.57 218.33 279.92 211.6"/><polygon class="cls-1" points="276 217.79 288.17 224.82 276 231.85 276 217.79"/><polygon class="cls-1" points="255.71 251.26 269.33 243.4 269.33 259.12 255.71 251.26"/><polygon class="cls-1" points="252.43 256.3 266.61 264.48 252.43 272.67 252.43 256.3"/><polygon class="cls-1" points="232.03 290.93 246.81 282.39 246.81 299.46 232.03 290.93"/><polygon class="cls-1" points="229.19 295.37 244.39 304.15 229.19 312.93 229.19 295.37"/><polygon class="cls-1" points="229.74 322.76 243.29 330.59 229.74 338.42 229.74 322.76"/><polygon class="cls-1" points="234.38 343.81 245.64 337.31 245.64 350.31 234.38 343.81"/><polygon class="cls-1" points="255.04 366.6 261.38 370.26 255.04 373.91 255.04 366.6"/><polygon class="cls-1" points="262.05 383.48 266.16 381.1 266.16 385.85 262.05 383.48"/><polygon class="cls-1" points="279.7 409.3 280.77 409.92 279.7 410.54 279.7 409.3"/><polygon class="cls-1" points="287.69 423.14 287.69 423.14 287.69 423.14 287.69 423.14"/><polygon class="cls-1" points="531.89 211.48 532.1 211.6 531.89 211.71 531.89 211.48"/><polygon class="cls-1" points="515.68 185.15 517.2 184.28 517.2 186.03 515.68 185.15"/><polygon class="cls-1" points="508.28 170.59 510.61 171.93 508.28 173.28 508.28 170.59"/><polygon class="cls-1" points="507.98 143.62 511.21 145.49 507.98 147.35 507.98 143.62"/><polygon class="cls-1" points="491.09 145.49 495.14 143.15 495.14 147.83 491.09 145.49"/><polygon class="cls-1" points="461.3 142.1 467.18 145.49 461.3 148.88 461.3 142.1"/><polygon class="cls-1" points="443.52 145.49 450.23 141.62 450.23 149.36 443.52 145.49"/><polygon class="cls-1" points="414.72 140.74 422.94 145.49 414.72 150.24 414.72 140.74"/><polygon class="cls-1" points="396.41 145.49 405.08 140.49 405.08 150.49 396.41 145.49"/><polygon class="cls-1" points="368.67 140.31 377.64 145.49 368.67 150.67 368.67 140.31"/><polygon class="cls-1" points="350.48 145.49 359.35 140.37 359.35 150.6 350.48 145.49"/><polygon class="cls-1" points="323 140.55 331.56 145.49 323 150.43 323 140.55"/><polygon class="cls-1" points="305.09 145.49 313.34 140.73 313.34 150.25 305.09 145.49"/><polygon class="cls-1" points="299.86 153.35 309.14 158.71 299.86 164.07 299.86 153.35"/><polygon class="cls-1" points="280.43 185.15 291.32 178.87 291.32 191.44 280.43 185.15"/><polygon class="cls-1" points="276.24 191.77 287.68 198.38 276.24 204.98 276.24 191.77"/><polygon class="cls-1" points="256.19 224.82 269.09 217.37 269.09 232.27 256.19 224.82"/><polygon class="cls-1" points="252.56 230.07 266.35 238.04 252.56 246 252.56 230.07"/><polygon class="cls-1" points="231.62 264.48 247.02 255.59 247.02 273.38 231.62 264.48"/><polygon class="cls-1" points="228.92 268.46 244.93 277.7 228.92 286.95 228.92 268.46"/><polygon class="cls-1" points="208 304.15 224.48 294.63 224.48 313.66 208 304.15"/><polygon class="cls-1" points="205.81 307.78 222.43 317.37 205.81 326.96 205.81 307.78"/><polygon class="cls-1" points="208.82 330.59 224.07 321.78 224.07 339.4 208.82 330.59"/><polygon class="cls-1" points="230.67 350.83 241.42 357.03 230.67 363.24 230.67 350.83"/><polygon class="cls-1" points="236.49 370.26 244.59 365.58 244.59 374.93 236.49 370.26"/><polygon class="cls-1" points="255.94 394.59 259.59 396.7 255.94 398.81 255.94 394.59"/><polygon class="cls-1" points="263.38 409.92 265.49 408.7 265.49 411.14 263.38 409.92"/><polygon class="cls-1" points="539.32 198.38 539.73 198.14 539.73 198.62 539.32 198.38"/><polygon class="cls-1" points="531.64 184.6 532.6 185.15 531.64 185.7 531.64 184.6"/><polygon class="cls-1" points="515.01 158.71 517.53 157.25 517.53 160.16 515.01 158.71"/><polygon class="cls-1" points="514.59 132.27 517.75 130.44 517.75 134.09 514.59 132.27"/><polygon class="cls-1" points="484.61 129.59 489.25 132.27 484.61 134.95 484.61 129.59"/><polygon class="cls-1" points="467.27 132.27 472.7 129.13 472.7 135.41 467.27 132.27"/><polygon class="cls-1" points="438.09 128.35 444.89 132.27 438.09 136.19 438.09 128.35"/><polygon class="cls-1" points="420.19 132.27 427.54 128.03 427.54 136.51 420.19 132.27"/><polygon class="cls-1" points="391.96 127.78 399.74 132.27 391.96 136.76 391.96 127.78"/><polygon class="cls-1" points="374.01 132.27 381.93 127.69 381.93 136.84 374.01 132.27"/><polygon class="cls-1" points="346.25 127.92 353.77 132.27 346.25 136.61 346.25 127.92"/><polygon class="cls-1" points="328.56 132.27 335.96 127.99 335.96 136.54 328.56 132.27"/><polygon class="cls-1" points="300.69 128.35 307.48 132.27 300.69 136.19 300.69 128.35"/><polygon class="cls-1" points="281.65 158.71 290.71 153.48 290.71 163.94 281.65 158.71"/><polygon class="cls-1" points="276.66 166.05 286.85 171.93 276.66 177.81 276.66 166.05"/><polygon class="cls-1" points="257 198.38 268.68 191.63 268.68 205.12 257 198.38"/><polygon class="cls-1" points="252.98 204.37 265.5 211.6 252.98 218.83 252.98 204.37"/><polygon class="cls-1" points="232.18 238.04 246.74 229.63 246.74 246.45 232.18 238.04"/><polygon class="cls-1" points="229.06 242.27 244.63 251.26 229.06 260.25 229.06 242.27"/><polygon class="cls-1" points="207.64 277.7 224.66 267.88 224.66 287.53 207.64 277.7"/><polygon class="cls-1" points="205.62 280.99 222.82 290.93 205.62 300.86 205.62 280.99"/><polygon class="cls-1" points="184.51 317.37 201.88 307.34 201.88 327.4 184.51 317.37"/><polygon class="cls-1" points="206.48 335.37 221.1 343.81 206.48 352.25 206.48 335.37"/><polygon class="cls-1" points="210.7 357.03 223.13 349.86 223.13 364.21 210.7 357.03"/><polygon class="cls-1" points="231.81 379.25 239.14 383.48 231.81 387.7 231.81 379.25"/><polygon class="cls-1" points="238.5 396.7 243.58 393.76 243.58 399.63 238.5 396.7"/><polygon class="cls-1" points="256.61 422.19 258.25 423.14 256.61 424.09 256.61 422.19"/><polygon class="cls-1" points="264.51 436.36 264.93 436.12 264.93 436.6 264.51 436.36"/><polygon class="cls-1" points="554.79 198.26 555 198.38 554.79 198.49 554.79 198.26"/><polygon class="cls-1" points="538.83 171.93 539.97 171.27 539.97 172.59 538.83 171.93"/><polygon class="cls-1" points="531.35 157.65 533.18 158.71 531.35 159.77 531.35 157.65"/><polygon class="cls-1" points="507.86 116.98 511.45 119.05 507.86 121.11 507.86 116.98"/><polygon class="cls-1" points="491.01 119.05 495.18 116.64 495.18 121.45 491.01 119.05"/><polygon class="cls-1" points="461.45 115.9 466.88 119.05 461.45 122.19 461.45 115.9"/><polygon class="cls-1" points="444.05 119.05 449.96 115.63 449.96 122.46 444.05 119.05"/><polygon class="cls-1" points="415.24 115.2 421.89 119.05 415.24 122.89 415.24 115.2"/><polygon class="cls-1" points="397.68 119.05 404.45 115.14 404.45 122.95 397.68 119.05"/><polygon class="cls-1" points="369.44 115.2 376.1 119.05 369.44 122.89 369.44 115.2"/><polygon class="cls-1" points="352.1 119.05 358.53 115.33 358.53 122.76 352.1 119.05"/><polygon class="cls-1" points="323.86 115.59 329.85 119.05 323.86 122.5 323.86 115.59"/><polygon class="cls-1" points="306.82 119.05 312.47 115.78 312.47 122.31 306.82 119.05"/><polygon class="cls-1" points="283.26 132.27 289.9 128.43 289.9 136.11 283.26 132.27"/><polygon class="cls-1" points="277.44 140.97 285.28 145.49 277.44 150.01 277.44 140.97"/><polygon class="cls-1" points="258.04 171.93 268.17 166.08 268.17 177.78 258.04 171.93"/><polygon class="cls-1" points="253.47 178.78 264.52 185.15 253.47 191.53 253.47 178.78"/><polygon class="cls-1" points="233.31 211.6 246.18 204.17 246.18 219.03 233.31 211.6"/><polygon class="cls-1" points="229.61 216.77 243.55 224.82 229.61 232.87 229.61 216.77"/><polygon class="cls-1" points="208.25 251.26 224.36 241.97 224.36 260.56 208.25 251.26"/><polygon class="cls-1" points="205.68 254.66 222.7 264.48 205.68 274.31 205.68 254.66"/><polygon class="cls-1" points="184.27 290.93 201.99 280.69 201.99 301.16 184.27 290.93"/><polygon class="cls-1" points="182.5 293.84 200.35 304.15 182.5 314.45 182.5 293.84"/><polygon class="cls-1" points="182.84 320.87 199.68 330.59 182.84 340.31 182.84 320.87"/><polygon class="cls-1" points="185.77 343.81 201.25 334.88 201.25 352.75 185.77 343.81"/><polygon class="cls-1" points="207.6 363.75 218.87 370.26 207.6 376.76 207.6 363.75"/><polygon class="cls-1" points="213.09 383.48 221.94 378.37 221.94 388.58 213.09 383.48"/><polygon class="cls-1" points="232.71 407.24 237.35 409.92 232.71 412.6 232.71 407.24"/><polygon class="cls-1" points="240.06 423.14 242.8 421.56 242.8 424.72 240.06 423.14"/><polygon class="cls-1" points="257.15 449.58 257.16 449.58 257.15 449.59 257.15 449.58"/><polygon class="cls-1" points="562.25 185.15 562.62 184.94 562.62 185.37 562.25 185.15"/><polygon class="cls-1" points="554.61 171.5 555.36 171.93 554.61 172.36 554.61 171.5"/><polygon class="cls-1" points="538.35 145.49 540.21 144.41 540.21 146.57 538.35 145.49"/><polygon class="cls-1" points="531.14 130.84 533.6 132.27 531.14 133.69 531.14 130.84"/><polygon class="cls-1" points="531.08 104.29 533.73 105.82 531.08 107.35 531.08 104.29"/><polygon class="cls-1" points="514.59 105.82 517.75 104 517.75 107.65 514.59 105.82"/><polygon class="cls-1" points="484.77 103.42 488.94 105.82 484.77 108.23 484.77 103.42"/><polygon class="cls-1" points="467.79 105.82 472.44 103.14 472.44 108.51 467.79 105.82"/><polygon class="cls-1" points="438.57 102.73 443.93 105.82 438.57 108.92 438.57 102.73"/><polygon class="cls-1" points="421.39 105.82 426.94 102.62 426.94 109.03 421.39 105.82"/><polygon class="cls-1" points="392.69 102.6 398.29 105.82 392.69 109.05 392.69 102.6"/><polygon class="cls-1" points="375.64 105.82 381.12 102.66 381.12 108.99 375.64 105.82"/><polygon class="cls-1" points="347.05 102.87 352.17 105.82 347.05 108.78 347.05 102.87"/><polygon class="cls-1" points="330.24 105.82 335.12 103.01 335.12 108.64 330.24 105.82"/><polygon class="cls-1" points="301.47 103.25 305.93 105.82 301.47 108.39 301.47 103.25"/><polygon class="cls-1" points="284.71 105.82 289.18 103.25 289.18 108.4 284.71 105.82"/><polygon class="cls-1" points="278.22 115.86 283.73 119.05 278.22 122.22 278.22 115.86"/><polygon class="cls-1" points="259.64 145.49 267.36 141.03 267.36 149.95 259.64 145.49"/><polygon class="cls-1" points="254.2 153.59 263.07 158.71 254.2 163.84 254.2 153.59"/><polygon class="cls-1" points="234.46 185.15 245.6 178.71 245.6 191.59 234.46 185.15"/><polygon class="cls-1" points="230.25 191.45 242.25 198.38 230.25 205.3 230.25 191.45"/><polygon class="cls-1" points="209.56 224.82 223.7 216.65 223.7 232.99 209.56 224.82"/><polygon class="cls-1" points="206.27 229.24 221.52 238.04 206.27 246.84 206.27 229.24"/><polygon class="cls-1" points="184.62 264.48 201.82 254.55 201.82 274.42 184.62 264.48"/><polygon class="cls-1" points="182.53 267.45 200.3 277.7 182.53 287.96 182.53 267.45"/><polygon class="cls-1" points="161.28 304.15 179.14 293.84 179.14 314.45 161.28 304.15"/><polygon class="cls-1" points="159.72 307.26 177.22 317.37 159.72 327.47 159.72 307.26"/><polygon class="cls-1" points="161.86 330.59 178.85 320.78 178.85 340.4 161.86 330.59"/><polygon class="cls-1" points="183.73 348.86 197.89 357.03 183.73 365.21 183.73 348.86"/><polygon class="cls-1" points="188.04 370.26 200.11 363.29 200.11 377.22 188.04 370.26"/><polygon class="cls-1" points="208.79 392.26 216.49 396.7 208.79 401.14 208.79 392.26"/><polygon class="cls-1" points="215.09 409.92 220.94 406.54 220.94 413.3 215.09 409.92"/><polygon class="cls-1" points="233.59 435.21 235.59 436.36 233.59 437.51 233.59 435.21"/><polygon class="cls-1" points="241.47 449.58 242.1 449.22 242.1 449.95 241.47 449.58"/><polygon class="cls-1" points="585.39 198.38 585.39 198.37 585.39 198.38 585.39 198.38"/><polygon class="cls-1" points="577.69 185.03 577.9 185.15 577.69 185.27 577.69 185.03"/><polygon class="cls-1" points="561.88 158.71 562.8 158.18 562.8 159.24 561.88 158.71"/><polygon class="cls-1" points="554.4 144.7 555.77 145.49 554.4 146.28 554.4 144.7"/><polygon class="cls-1" points="538.06 119.05 540.36 117.72 540.36 120.37 538.06 119.05"/><polygon class="cls-1" points="538.03 92.6 540.38 91.25 540.38 93.96 538.03 92.6"/><polygon class="cls-1" points="508.01 90.78 511.16 92.6 508.01 94.43 508.01 90.78"/><polygon class="cls-1" points="491.46 92.6 494.96 90.58 494.96 94.62 491.46 92.6"/><polygon class="cls-1" points="461.86 90.17 466.06 92.6 461.86 95.03 461.86 90.17"/><polygon class="cls-1" points="445.03 92.6 449.47 90.04 449.47 95.16 445.03 92.6"/><polygon class="cls-1" points="415.89 89.89 420.59 92.6 415.89 95.31 415.89 89.89"/><polygon class="cls-1" points="399.12 92.6 403.73 89.94 403.73 95.27 399.12 92.6"/><polygon class="cls-1" points="370.18 90.04 374.62 92.6 370.18 95.17 370.18 90.04"/><polygon class="cls-1" points="353.57 92.6 357.8 90.16 357.8 95.05 353.57 92.6"/><polygon class="cls-1" points="324.57 90.38 328.43 92.6 324.57 94.83 324.57 90.38"/><polygon class="cls-1" points="308.18 92.6 311.79 90.52 311.79 94.69 308.18 92.6"/><polygon class="cls-1" points="278.82 90.46 282.53 92.6 278.82 94.75 278.82 90.46"/><polygon class="cls-1" points="261.13 119.05 266.62 115.88 266.62 122.21 261.13 119.05"/><polygon class="cls-1" points="254.96 128.46 261.55 132.27 254.96 136.07 254.96 128.46"/><polygon class="cls-1" points="236.03 158.71 244.82 153.64 244.82 163.78 236.03 158.71"/><polygon class="cls-1" points="230.91 166.15 240.94 171.93 230.91 177.72 230.91 166.15"/><polygon class="cls-1" points="211.1 198.38 222.93 191.54 222.93 205.21 211.1 198.38"/><polygon class="cls-1" points="207.11 204.25 219.84 211.6 207.11 218.94 207.11 204.25"/><polygon class="cls-1" points="186.02 238.04 201.12 229.32 201.12 246.75 186.02 238.04"/><polygon class="cls-1" points="183.06 241.91 199.25 251.26 183.06 260.61 183.06 241.91"/><polygon class="cls-1" points="161.43 277.7 179.06 267.52 179.06 287.88 161.43 277.7"/><polygon class="cls-1" points="159.66 280.72 177.34 290.93 159.66 301.13 159.66 280.72"/><polygon class="cls-1" points="138.93 317.37 155.97 307.53 155.97 327.21 138.93 317.37"/><polygon class="cls-1" points="160.34 334.78 175.98 343.81 160.34 352.84 160.34 334.78"/><polygon class="cls-1" points="163.71 357.03 177.92 348.83 177.92 365.24 163.71 357.03"/><polygon class="cls-1" points="185.07 377.63 195.21 383.48 185.07 389.33 185.07 377.63"/><polygon class="cls-1" points="190.54 396.7 198.86 391.9 198.86 401.5 190.54 396.7"/><polygon class="cls-1" points="209.78 420.42 214.5 423.14 209.78 425.86 209.78 420.42"/><polygon class="cls-1" points="217.11 436.36 219.93 434.74 219.93 437.99 217.11 436.36"/><polygon class="cls-1" points="234.21 462.73 234.34 462.81 234.21 462.88 234.21 462.73"/><polygon class="cls-1" points="585.14 171.93 585.52 171.72 585.52 172.15 585.14 171.93"/><polygon class="cls-1" points="577.55 158.34 578.18 158.71 577.55 159.08 577.55 158.34"/><polygon class="cls-1" points="561.55 132.27 562.97 131.45 562.97 133.09 561.55 132.27"/><polygon class="cls-1" points="554.27 118.03 556.04 119.05 554.27 120.06 554.27 118.03"/><polygon class="cls-1" points="531.15 77.98 533.57 79.38 531.15 80.77 531.15 77.98"/><polygon class="cls-1" points="514.9 79.38 517.59 77.83 517.59 80.93 514.9 79.38"/><polygon class="cls-1" points="485.11 77.56 488.25 79.38 485.11 81.2 485.11 77.56"/><polygon class="cls-1" points="468.64 79.38 472.02 77.43 472.02 81.33 468.64 79.38"/><polygon class="cls-1" points="439.13 77.26 442.81 79.38 439.13 81.5 439.13 77.26"/><polygon class="cls-1" points="422.62 79.38 426.33 77.24 426.33 81.52 422.62 79.38"/><polygon class="cls-1" points="393.34 77.27 397 79.38 393.34 81.5 393.34 77.27"/><polygon class="cls-1" points="376.93 79.38 380.47 77.33 380.47 81.43 376.93 79.38"/><polygon class="cls-1" points="347.66 77.47 350.96 79.38 347.66 81.29 347.66 77.47"/><polygon class="cls-1" points="331.44 79.38 334.51 77.61 334.51 81.15 331.44 79.38"/><polygon class="cls-1" points="302.01 77.74 304.85 79.38 302.01 81.02 302.01 77.74"/><polygon class="cls-1" points="285.76 79.38 288.65 77.71 288.65 81.05 285.76 79.38"/><polygon class="cls-1" points="262.2 92.6 266.08 90.36 266.08 94.84 262.2 92.6"/><polygon class="cls-1" points="255.62 103.16 260.23 105.82 255.62 108.49 255.62 103.16"/><polygon class="cls-1" points="237.52 132.27 244.07 128.48 244.07 136.05 237.52 132.27"/><polygon class="cls-1" points="231.75 141.16 239.26 145.49 231.75 149.82 231.75 141.16"/><polygon class="cls-1" points="212.54 171.93 222.21 166.34 222.21 177.52 212.54 171.93"/><polygon class="cls-1" points="207.84 179.06 218.39 185.15 207.84 191.25 207.84 179.06"/><polygon class="cls-1" points="187.87 211.6 200.19 204.48 200.19 218.71 187.87 211.6"/><polygon class="cls-1" points="183.94 217 197.48 224.82 183.94 232.64 183.94 217"/><polygon class="cls-1" points="162.61 251.26 178.47 242.1 178.47 260.42 162.61 251.26"/><polygon class="cls-1" points="159.97 254.81 176.72 264.48 159.97 274.15 159.97 254.81"/><polygon class="cls-1" points="138.86 290.93 156 281.03 156 300.82 138.86 290.93"/><polygon class="cls-1" points="136.97 294.31 154.01 304.15 136.97 313.99 136.97 294.31"/><polygon class="cls-1" points="137.34 321.39 153.28 330.59 137.34 339.79 137.34 321.39"/><polygon class="cls-1" points="140.18 343.81 155.34 335.06 155.34 352.57 140.18 343.81"/><polygon class="cls-1" points="161.48 363.19 173.71 370.26 161.48 377.31 161.48 363.19"/><polygon class="cls-1" points="166.35 383.48 176.61 377.55 176.61 389.4 166.35 383.48"/><polygon class="cls-1" points="186.18 405.98 193.01 409.92 186.18 413.86 186.18 405.98"/><polygon class="cls-1" points="192.75 423.14 197.76 420.25 197.76 426.04 192.75 423.14"/><polygon class="cls-1" points="210.77 448.56 212.53 449.58 210.77 450.6 210.77 448.56"/><polygon class="cls-1" points="218.56 462.81 219.2 462.44 219.2 463.17 218.56 462.81"/><polygon class="cls-1" points="584.9 145.49 585.64 145.06 585.64 145.92 584.9 145.49"/><polygon class="cls-1" points="577.41 131.66 578.46 132.27 577.41 132.87 577.41 131.66"/><polygon class="cls-1" points="561.39 105.82 563.04 104.87 563.04 106.78 561.39 105.82"/><polygon class="cls-1" points="554.23 91.52 556.11 92.6 554.23 93.69 554.23 91.52"/><polygon class="cls-1" points="554.31 65.21 555.96 66.16 554.31 67.11 554.31 65.21"/><polygon class="cls-1" points="538.26 66.16 540.26 65.01 540.26 67.31 538.26 66.16"/><polygon class="cls-1" points="508.28 64.81 510.61 66.16 508.28 67.51 508.28 64.81"/><polygon class="cls-1" points="492.16 66.16 494.61 64.75 494.61 67.57 492.16 66.16"/><polygon class="cls-1" points="462.37 64.62 465.04 66.16 462.37 67.7 462.37 64.62"/><polygon class="cls-1" points="446.14 66.16 448.92 64.56 448.92 67.76 446.14 66.16"/><polygon class="cls-1" points="416.53 64.56 419.31 66.16 416.53 67.76 416.53 64.56"/><polygon class="cls-1" points="400.35 66.16 403.11 64.56 403.11 67.75 400.35 66.16"/><polygon class="cls-1" points="370.78 64.63 373.42 66.16 370.78 67.68 370.78 64.63"/><polygon class="cls-1" points="354.66 66.16 357.25 64.66 357.25 67.66 354.66 66.16"/><polygon class="cls-1" points="325.09 64.83 327.39 66.16 325.09 67.49 325.09 64.83"/><polygon class="cls-1" points="309.13 66.16 311.32 64.9 311.32 67.42 309.13 66.16"/><polygon class="cls-1" points="238.71 105.82 243.48 103.07 243.48 108.58 238.71 105.82"/><polygon class="cls-1" points="232.4 115.84 237.96 119.05 232.4 122.25 232.4 115.84"/><polygon class="cls-1" points="214.16 145.49 221.4 141.31 221.4 149.67 214.16 145.49"/><polygon class="cls-1" points="208.65 154.03 216.76 158.71 208.65 163.39 208.65 154.03"/><polygon class="cls-1" points="189.38 185.15 199.44 179.35 199.44 190.96 189.38 185.15"/><polygon class="cls-1" points="184.85 192.13 195.67 198.38 184.85 204.62 184.85 192.13"/><polygon class="cls-1" points="164.5 224.82 177.53 217.29 177.53 232.34 164.5 224.82"/><polygon class="cls-1" points="160.8 229.81 175.06 238.04 160.8 246.27 160.8 229.81"/><polygon class="cls-1" points="139.49 264.48 155.69 255.13 155.69 273.83 139.49 264.48"/><polygon class="cls-1" points="137.11 268.1 153.74 277.7 137.11 287.31 137.11 268.1"/><polygon class="cls-1" points="116.5 304.15 132.83 294.72 132.83 313.57 116.5 304.15"/><polygon class="cls-1" points="114.53 308.32 130.21 317.37 114.53 326.42 114.53 308.32"/><polygon class="cls-1" points="117.3 330.59 132.43 321.86 132.43 339.33 117.3 330.59"/><polygon class="cls-1" points="138.26 349.43 151.44 357.03 138.26 364.64 138.26 349.43"/><polygon class="cls-1" points="142.47 370.26 154.19 363.49 154.19 377.02 142.47 370.26"/><polygon class="cls-1" points="162.77 391.88 171.12 396.7 162.77 401.52 162.77 391.88"/><polygon class="cls-1" points="168.68 409.92 175.44 406.02 175.44 413.82 168.68 409.92"/><polygon class="cls-1" points="187.34 434.44 190.67 436.36 187.34 438.28 187.34 434.44"/><polygon class="cls-1" points="194.76 449.58 196.75 448.44 196.75 450.73 194.76 449.58"/><polygon class="cls-1" points="211.35 476.03 211.36 476.03 211.35 476.03 211.35 476.03"/><polygon class="cls-1" points="584.71 119.05 585.74 118.45 585.74 119.64 584.71 119.05"/><polygon class="cls-1" points="577.34 105.09 578.61 105.82 577.34 106.56 577.34 105.09"/><polygon class="cls-1" points="561.39 79.38 563.04 78.43 563.04 80.33 561.39 79.38"/><polygon class="cls-1" points="561.62 52.94 562.93 52.18 562.93 53.69 561.62 52.94"/><polygon class="cls-1" points="531.41 51.98 533.06 52.94 531.41 53.89 531.41 51.98"/><polygon class="cls-1" points="515.52 52.94 517.28 51.93 517.28 53.95 515.52 52.94"/><polygon class="cls-1" points="485.57 51.93 487.33 52.94 485.57 53.95 485.57 51.93"/><polygon class="cls-1" points="469.68 52.94 471.5 51.89 471.5 53.99 469.68 52.94"/><polygon class="cls-1" points="439.74 51.87 441.59 52.94 439.74 54.01 439.74 51.87"/><polygon class="cls-1" points="423.86 52.94 425.7 51.88 425.7 54 423.86 52.94"/><polygon class="cls-1" points="393.94 51.88 395.79 52.94 393.94 54 393.94 51.88"/><polygon class="cls-1" points="378.14 52.94 379.87 51.94 379.87 53.93 378.14 52.94"/><polygon class="cls-1" points="348.18 51.94 349.91 52.94 348.18 53.93 348.18 51.94"/><polygon class="cls-1" points="332.42 52.94 334.02 52.01 334.02 53.87 332.42 52.94"/><polygon class="cls-1" points="232.82 90.13 237.12 92.6 232.82 95.08 232.82 90.13"/><polygon class="cls-1" points="215.34 119.05 220.81 115.89 220.81 122.2 215.34 119.05"/><polygon class="cls-1" points="209.31 128.73 215.44 132.27 209.31 135.81 209.31 128.73"/><polygon class="cls-1" points="191.04 158.71 198.61 154.34 198.61 163.08 191.04 158.71"/><polygon class="cls-1" points="185.62 167.03 194.12 171.93 185.62 176.84 185.62 167.03"/><polygon class="cls-1" points="166.46 198.38 176.55 192.55 176.55 204.2 166.46 198.38"/><polygon class="cls-1" points="161.86 205.19 172.95 211.6 161.86 218 161.86 205.19"/><polygon class="cls-1" points="141.22 238.04 154.82 230.19 154.82 245.89 141.22 238.04"/><polygon class="cls-1" points="137.74 242.76 152.47 251.26 137.74 259.77 137.74 242.76"/><polygon class="cls-1" points="116.71 277.7 132.72 268.46 132.72 286.95 116.71 277.7"/><polygon class="cls-1" points="114.41 281.67 130.44 290.93 114.41 300.18 114.41 281.67"/><polygon class="cls-1" points="94.56 317.37 109.45 308.77 109.45 325.97 94.56 317.37"/><polygon class="cls-1" points="115.33 336.15 128.6 343.81 115.33 351.47 115.33 336.15"/><polygon class="cls-1" points="119.34 357.03 131.41 350.07 131.41 364 119.34 357.03"/><polygon class="cls-1" points="139.56 378.13 148.83 383.48 139.56 388.82 139.56 378.13"/><polygon class="cls-1" points="144.97 396.7 152.95 392.09 152.95 401.3 144.97 396.7"/><polygon class="cls-1" points="163.89 420.26 168.88 423.14 163.89 426.03 163.89 420.26"/><polygon class="cls-1" points="170.99 436.36 174.28 434.46 174.28 438.26 170.99 436.36"/><polygon class="cls-1" points="188.17 462.31 189.02 462.81 188.17 463.3 188.17 462.31"/><polygon class="cls-1" points="196.08 476.03 196.09 476.03 196.09 476.03 196.08 476.03"/><polygon class="cls-1" points="584.63 92.6 585.77 91.94 585.77 93.26 584.63 92.6"/><polygon class="cls-1" points="577.33 78.63 578.63 79.38 577.33 80.13 577.33 78.63"/><polygon class="cls-1" points="554.5 39.09 555.58 39.72 554.5 40.34 554.5 39.09"/><polygon class="cls-1" points="538.8 39.72 539.99 39.03 539.99 40.4 538.8 39.72"/><polygon class="cls-1" points="508.66 39.03 509.86 39.72 508.66 40.4 508.66 39.03"/><polygon class="cls-1" points="493 39.72 494.19 39.03 494.19 40.4 493 39.72"/><polygon class="cls-1" points="462.9 39.1 463.97 39.72 462.9 40.33 462.9 39.1"/><polygon class="cls-1" points="447.28 39.72 448.35 39.1 448.35 40.33 447.28 39.72"/><polygon class="cls-1" points="417.11 39.11 418.16 39.72 417.11 40.32 417.11 39.11"/><polygon class="cls-1" points="216.07 92.6 220.45 90.07 220.45 95.13 216.07 92.6"/><polygon class="cls-1" points="209.73 103.01 214.6 105.82 209.73 108.64 209.73 103.01"/><polygon class="cls-1" points="192.26 132.27 198 128.95 198 135.58 192.26 132.27"/><polygon class="cls-1" points="186.39 141.91 192.58 145.49 186.39 149.06 186.39 141.91"/><polygon class="cls-1" points="168.07 171.93 175.75 167.5 175.75 176.36 168.07 171.93"/><polygon class="cls-1" points="162.73 180.26 171.2 185.15 162.73 190.05 162.73 180.26"/><polygon class="cls-1" points="143.49 211.6 153.69 205.71 153.69 217.48 143.49 211.6"/><polygon class="cls-1" points="138.81 218.16 150.34 224.82 138.81 231.47 138.81 218.16"/><polygon class="cls-1" points="118.03 251.26 132.06 243.16 132.06 259.36 118.03 251.26"/><polygon class="cls-1" points="114.77 255.84 129.73 264.48 114.77 273.12 114.77 255.84"/><polygon class="cls-1" points="94.21 290.93 109.63 282.02 109.63 299.83 94.21 290.93"/><polygon class="cls-1" points="91.84 295.47 106.88 304.15 91.84 312.83 91.84 295.47"/><polygon class="cls-1" points="92.44 322.94 105.68 330.59 92.44 338.24 92.44 322.94"/><polygon class="cls-1" points="96.39 343.81 108.53 336.8 108.53 350.82 96.39 343.81"/><polygon class="cls-1" points="116.52 364.65 126.23 370.26 116.52 375.86 116.52 364.65"/><polygon class="cls-1" points="121.88 383.48 130.14 378.7 130.14 388.25 121.88 383.48"/><polygon class="cls-1" points="140.69 406.51 146.59 409.92 140.69 413.32 140.69 406.51"/><polygon class="cls-1" points="147.25 423.14 151.81 420.51 151.81 425.77 147.25 423.14"/><polygon class="cls-1" points="164.93 448.51 166.8 449.58 164.93 450.66 164.93 448.51"/><polygon class="cls-1" points="172.67 462.81 173.45 462.36 173.45 463.25 172.67 462.81"/><polygon class="cls-1" points="584.67 66.16 585.75 65.54 585.75 66.78 584.67 66.16"/><polygon class="cls-1" points="577.41 52.34 578.45 52.94 577.41 53.53 577.41 52.34"/><polygon class="cls-1" points="577.59 26.19 578.11 26.5 577.59 26.8 577.59 26.19"/><polygon class="cls-1" points="562.07 26.5 562.71 26.13 562.71 26.86 562.07 26.5"/><polygon class="cls-1" points="531.69 26.03 532.5 26.5 531.69 26.96 531.69 26.03"/><polygon class="cls-1" points="516.2 26.5 516.94 26.07 516.94 26.92 516.2 26.5"/><polygon class="cls-1" points="186.82 116.22 191.71 119.05 186.82 121.87 186.82 116.22"/><polygon class="cls-1" points="169.56 145.49 175 142.35 175 148.63 169.56 145.49"/><polygon class="cls-1" points="163.55 155.24 169.56 158.71 163.55 162.18 163.55 155.24"/><polygon class="cls-1" points="145.25 185.15 152.8 180.8 152.8 189.51 145.25 185.15"/><polygon class="cls-1" points="139.9 193.61 148.16 198.38 139.9 203.14 139.9 193.61"/><polygon class="cls-1" points="120.2 224.82 130.98 218.59 130.98 231.04 120.2 224.82"/><polygon class="cls-1" points="115.7 231.01 127.87 238.04 115.7 245.07 115.7 231.01"/><polygon class="cls-1" points="94.85 264.48 109.3 256.14 109.3 272.82 94.85 264.48"/><polygon class="cls-1" points="91.86 269.07 106.83 277.7 91.86 286.34 91.86 269.07"/><polygon class="cls-1" points="71.84 304.15 86.46 295.71 86.46 312.58 71.84 304.15"/><polygon class="cls-1" points="69.35 309.4 83.16 317.37 69.35 325.34 69.35 309.4"/><polygon class="cls-1" points="73.18 330.59 85.79 323.31 85.79 337.87 73.18 330.59"/><polygon class="cls-1" points="93.6 351.4 103.36 357.03 93.6 362.67 93.6 351.4"/><polygon class="cls-1" points="98.83 370.26 107.31 365.36 107.31 375.15 98.83 370.26"/><polygon class="cls-1" points="117.7 393.15 123.85 396.7 117.7 400.24 117.7 393.15"/><polygon class="cls-1" points="124.02 409.92 129.07 407.01 129.07 412.83 124.02 409.92"/><polygon class="cls-1" points="141.78 434.85 144.4 436.36 141.78 437.87 141.78 434.85"/><polygon class="cls-1" points="149.19 449.58 150.84 448.63 150.84 450.54 149.19 449.58"/><polygon class="cls-1" points="165.55 476.03 165.56 476.03 165.55 476.03 165.55 476.03"/><polygon class="cls-1" points="584.93 39.72 585.63 39.31 585.63 40.12 584.93 39.72"/><polygon class="cls-1" points="585.33 13.27 585.43 13.21 585.43 13.33 585.33 13.27"/><polygon class="cls-1" points="554.73 13.04 555.13 13.27 554.73 13.51 554.73 13.04"/><polygon class="cls-1" points="539.32 13.27 539.73 13.03 539.73 13.51 539.32 13.27"/><polygon class="cls-1" points="508.96 13.1 509.26 13.27 508.96 13.44 508.96 13.1"/><polygon class="cls-1" points="493.67 13.27 493.86 13.16 493.86 13.38 493.67 13.27"/><polygon class="cls-1" points="170.32 119.05 174.62 116.56 174.62 121.53 170.32 119.05"/><polygon class="cls-1" points="164.09 129.73 168.48 132.27 164.09 134.8 164.09 129.73"/><polygon class="cls-1" points="146.89 158.71 151.98 155.77 151.98 161.65 146.89 158.71"/><polygon class="cls-1" points="140.73 168.6 146.5 171.93 140.73 175.26 140.73 168.6"/><polygon class="cls-1" points="122.5 198.38 129.83 194.14 129.83 202.61 122.5 198.38"/><polygon class="cls-1" points="116.93 206.7 125.41 211.6 116.93 216.49 116.93 206.7"/><polygon class="cls-1" points="96.73 238.04 108.36 231.33 108.36 244.75 96.73 238.04"/><polygon class="cls-1" points="92.53 243.77 105.5 251.26 92.53 258.75 92.53 243.77"/><polygon class="cls-1" points="71.83 277.7 86.46 269.26 86.46 286.15 71.83 277.7"/><polygon class="cls-1" points="69.06 282.46 83.73 290.93 69.06 299.39 69.06 282.46"/><polygon class="cls-1" points="49.59 317.37 63.23 309.49 63.23 325.25 49.59 317.37"/><polygon class="cls-1" points="70.42 337.69 81.02 343.81 70.42 349.93 70.42 337.69"/><polygon class="cls-1" points="75.65 357.03 84.55 351.89 84.55 362.17 75.65 357.03"/><polygon class="cls-1" points="94.83 379.98 100.89 383.48 94.83 386.97 94.83 379.98"/><polygon class="cls-1" points="101.12 396.7 106.17 393.79 106.17 399.61 101.12 396.7"/><polygon class="cls-1" points="118.72 421.36 121.81 423.14 118.72 424.93 118.72 421.36"/><polygon class="cls-1" points="126.03 436.36 128.06 435.19 128.06 437.54 126.03 436.36"/><polygon class="cls-1" points="142.48 462.5 143 462.81 142.48 463.11 142.48 462.5"/><polygon class="cls-1" points="562.49 0.05 562.5 0.05 562.5 0.05 562.49 0.05"/><polygon class="cls-1" points="531.93 0 532.02 0.05 531.93 0.1 531.93 0"/><polygon class="cls-1" points="147.91 132.27 151.47 130.21 151.47 134.32 147.91 132.27"/><polygon class="cls-1" points="141.43 143.38 145.09 145.49 141.43 147.6 141.43 143.38"/><polygon class="cls-1" points="124.21 171.93 128.98 169.18 128.98 174.69 124.21 171.93"/><polygon class="cls-1" points="117.89 181.93 123.48 185.15 117.89 188.38 117.89 181.93"/><polygon class="cls-1" points="99.34 211.6 107.06 207.14 107.06 216.05 99.34 211.6"/><polygon class="cls-1" points="93.7 219.37 103.15 224.82 93.7 230.27 93.7 219.37"/><polygon class="cls-1" points="73.17 251.26 85.79 243.97 85.79 258.55 73.17 251.26"/><polygon class="cls-1" points="69.38 256.56 83.09 264.48 69.38 272.4 69.38 256.56"/><polygon class="cls-1" points="48.96 290.93 63.55 282.5 63.55 299.35 48.96 290.93"/><polygon class="cls-1" points="46.23 295.8 60.69 304.15 46.23 312.5 46.23 295.8"/><polygon class="cls-1" points="47.04 323.63 59.08 330.59 47.04 337.55 47.04 323.63"/><polygon class="cls-1" points="51.89 343.81 62.08 337.93 62.08 349.69 51.89 343.81"/><polygon class="cls-1" points="71.69 366.33 78.48 370.26 71.69 374.18 71.69 366.33"/><polygon class="cls-1" points="78.06 383.48 83.35 380.42 83.35 386.53 78.06 383.48"/><polygon class="cls-1" points="95.78 408.07 98.99 409.92 95.78 411.77 95.78 408.07"/><polygon class="cls-1" points="102.97 423.14 105.24 421.83 105.24 424.45 102.97 423.14"/><polygon class="cls-1" points="119.5 449.15 120.25 449.58 119.5 450.01 119.5 449.15"/><polygon class="cls-1" points="127.25 462.81 127.45 462.69 127.45 462.92 127.25 462.81"/><polygon class="cls-1" points="125.52 145.49 128.32 143.87 128.32 147.11 125.52 145.49"/><polygon class="cls-1" points="118.69 156.88 121.87 158.71 118.69 160.54 118.69 156.88"/><polygon class="cls-1" points="101.35 185.15 106.05 182.44 106.05 187.87 101.35 185.15"/><polygon class="cls-1" points="94.94 195.07 100.67 198.38 94.94 201.68 94.94 195.07"/><polygon class="cls-1" points="75.59 224.82 84.58 219.63 84.58 230.01 75.59 224.82"/><polygon class="cls-1" points="70.34 231.78 81.18 238.04 70.34 244.3 70.34 231.78"/><polygon class="cls-1" points="49.62 264.48 63.22 256.63 63.22 272.34 49.62 264.48"/><polygon class="cls-1" points="46.23 269.35 60.7 277.7 46.23 286.06 46.23 269.35"/><polygon class="cls-1" points="25.91 304.15 40.72 295.6 40.72 312.69 25.91 304.15"/><polygon class="cls-1" points="23.45 309.24 37.55 317.37 23.45 325.5 23.45 309.24"/><polygon class="cls-1" points="27.61 330.59 39.87 323.51 39.87 337.67 27.61 330.59"/><polygon class="cls-1" points="48.36 352.37 56.44 357.03 48.36 361.7 48.36 352.37"/><polygon class="cls-1" points="54.47 370.26 60.79 366.61 60.79 373.9 54.47 370.26"/><polygon class="cls-1" points="72.76 394.64 76.33 396.7 72.76 398.76 72.76 394.64"/><polygon class="cls-1" points="79.92 409.92 82.42 408.48 82.42 411.36 79.92 409.92"/><polygon class="cls-1" points="96.59 435.91 97.37 436.36 96.59 436.81 96.59 435.91"/><polygon class="cls-1" points="104.28 449.58 104.59 449.4 104.59 449.76 104.28 449.58"/><line class="cls-1" x1="121" y1="132.27" x2="119.13" y2="133.34"/><polygon class="cls-1" points="102.93 158.71 105.26 157.37 105.26 160.06 102.93 158.71"/><polygon class="cls-1" points="95.85 170.2 98.85 171.93 95.85 173.66 95.85 170.2"/><polygon class="cls-1" points="78.22 198.38 83.27 195.46 83.27 201.28 78.22 198.38"/><polygon class="cls-1" points="71.77 207.82 78.31 211.6 71.77 215.38 71.77 207.82"/><polygon class="cls-1" points="51.62 238.04 62.22 231.92 62.22 244.16 51.62 238.04"/><polygon class="cls-1" points="46.95 244.16 59.26 251.26 46.95 258.37 46.95 244.16"/><polygon class="cls-1" points="25.9 277.7 40.73 269.15 40.73 286.26 25.9 277.7"/><polygon class="cls-1" points="23.07 282.13 38.31 290.93 23.07 299.73 23.07 282.13"/><polygon class="cls-1" points="3.17 317.37 17.74 308.96 17.74 325.78 3.17 317.37"/><polygon class="cls-1" points="24.7 337.83 35.06 343.81 24.7 349.8 24.7 337.83"/><polygon class="cls-1" points="30.4 357.03 38.48 352.37 38.48 361.7 30.4 357.03"/><polygon class="cls-1" points="49.61 380.97 53.94 383.48 49.61 385.98 49.61 380.97"/><polygon class="cls-1" points="56.63 396.7 59.72 394.92 59.72 398.48 56.63 396.7"/><polygon class="cls-1" points="73.56 422.45 74.75 423.14 73.56 423.83 73.56 422.45"/><polygon class="cls-1" points="81.31 436.36 81.72 436.12 81.72 436.6 81.31 436.36"/><polygon class="cls-1" points="103.77 132.27 104.84 131.64 104.84 132.89 103.77 132.27"/><polygon class="cls-1" points="96.44 144.77 97.68 145.49 96.44 146.21 96.44 144.77"/><polygon class="cls-1" points="80.02 171.93 82.37 170.58 82.37 173.28 80.02 171.93"/><polygon class="cls-1" points="72.83 183.21 76.2 185.15 72.83 187.1 72.83 183.21"/><polygon class="cls-1" points="54.57 211.6 60.74 208.03 60.74 215.16 54.57 211.6"/><polygon class="cls-1" points="48.26 219.99 56.63 224.82 48.26 229.65 48.26 219.99"/><polygon class="cls-1" points="27.46 251.26 39.95 244.05 39.95 258.47 27.46 251.26"/><polygon class="cls-1" points="23.46 256.36 37.53 264.48 23.46 272.61 23.46 256.36"/><polygon class="cls-1" points="2.41 290.93 18.12 281.85 18.12 300 2.41 290.93"/><polygon class="cls-1" points="0 295.05 15.75 304.15 0 313.24 0 295.05"/><polygon class="cls-1" points="0.85 322.97 14.05 330.59 0.85 338.21 0.85 322.97"/><polygon class="cls-1" points="5.71 343.81 16.47 337.6 16.47 350.02 5.71 343.81"/><polygon class="cls-1" points="26.13 366.75 32.2 370.26 26.13 373.76 26.13 366.75"/><polygon class="cls-1" points="32.98 383.48 37.19 381.04 37.19 385.91 32.98 383.48"/><polygon class="cls-1" points="50.49 408.94 52.18 409.92 50.49 410.9 50.49 408.94"/><polygon class="cls-1" points="58.12 423.14 58.97 422.65 58.97 423.63 58.12 423.14"/><polygon class="cls-1" points="81.15 145.49 81.81 145.11 81.81 145.87 81.15 145.49"/><polygon class="cls-1" points="73.61 158.11 74.64 158.71 73.61 159.31 73.61 158.11"/><polygon class="cls-1" points="56.76 185.15 59.65 183.48 59.65 186.82 56.76 185.15"/><polygon class="cls-1" points="49.65 195.95 53.85 198.38 49.65 200.8 49.65 195.95"/><polygon class="cls-1" points="30.25 224.82 38.55 220.03 38.55 229.6 30.25 224.82"/><polygon class="cls-1" points="24.6 231.9 35.24 238.04 24.6 244.18 24.6 231.9"/><polygon class="cls-1" points="3.3 264.48 17.68 256.18 17.68 272.78 3.3 264.48"/><polygon class="cls-1" points="0.03 268.65 15.7 277.7 0.03 286.76 0.03 268.65"/><polygon class="cls-1" points="2.36 352.03 11.03 357.03 2.36 362.04 2.36 352.03"/><polygon class="cls-1" points="8.67 370.26 14.99 366.61 14.99 373.9 8.67 370.26"/><polygon class="cls-1" points="27.24 395.11 29.98 396.7 27.24 398.29 27.24 395.11"/><polygon class="cls-1" points="34.76 409.92 36.3 409.03 36.3 410.8 34.76 409.92"/><polygon class="cls-1" points="51.05 436.36 51.05 436.36 51.05 436.37 51.05 436.36"/><polygon class="cls-1" points="73.91 132.2 74.03 132.27 73.91 132.34 73.91 132.2"/><polygon class="cls-1" points="58.26 158.71 58.9 158.34 58.9 159.08 58.26 158.71"/><polygon class="cls-1" points="50.57 171.09 52.02 171.93 50.57 172.77 50.57 171.09"/><polygon class="cls-1" points="33.12 198.38 37.12 196.06 37.12 200.68 33.12 198.38"/><polygon class="cls-1" points="26.2 208.22 32.05 211.6 26.2 214.97 26.2 208.22"/><polygon class="cls-1" points="5.67 238.04 16.49 231.79 16.49 244.28 5.67 238.04"/><polygon class="cls-1" points="0.9 243.72 13.96 251.26 0.9 258.81 0.9 243.72"/><polygon class="cls-1" points="3.77 380.91 8.22 383.48 3.77 386.05 3.77 380.91"/><polygon class="cls-1" points="10.98 396.7 13.83 395.05 13.83 398.34 10.98 396.7"/><polygon class="cls-1" points="27.96 422.81 28.53 423.14 27.96 423.47 27.96 422.81"/><polygon class="cls-1" points="51.05 145.48 51.06 145.49 51.05 145.49 51.05 145.48"/><polygon class="cls-1" points="34.93 171.93 36.21 171.19 36.21 172.67 34.93 171.93"/><polygon class="cls-1" points="27.37 183.79 29.72 185.15 27.37 186.51 27.37 183.79"/><polygon class="cls-1" points="8.97 211.6 14.84 208.2 14.84 214.99 8.97 211.6"/><polygon class="cls-1" points="2.44 219.95 10.88 224.82 2.44 229.69 2.44 219.95"/><polygon class="cls-1" points="4.7 408.97 6.35 409.92 4.7 410.87 4.7 408.97"/><polygon class="cls-1" points="12.46 423.14 13.1 422.78 13.1 423.51 12.46 423.14"/><polygon class="cls-1" points="28.08 158.59 28.3 158.71 28.08 158.84 28.08 158.59"/><polygon class="cls-1" points="11.37 185.15 13.64 183.84 13.64 186.46 11.37 185.15"/><polygon class="cls-1" points="3.97 196.16 7.8 198.38 3.97 200.59 3.97 196.16"/><polygon class="cls-1" points="12.79 158.71 12.93 158.63 12.93 158.79 12.79 158.71"/><polygon class="cls-1" points="4.9 171.32 5.95 171.93 4.9 172.54 4.9 171.32"/></g></g></svg>